inDegrees=no
num_controls=7
num_derivatives=13
num_iterations=41
num_multipliers=7
num_parameters=0
num_slacks=7
num_states=26
objective=0.471844
objective_accelerations=0.055969
objective_balance=0.000552
objective_effort=0.015287
objective_height=0.391030
objective_ligament=0.009006
solver_duration=565.350537
status=Solve_Succeeded
success=true
DataType=double
version=3
OpenSimVersion=4.5
endheader
time	/jointset/ground_pelvis/pelvis_tilt/value	/jointset/ground_pelvis/pelvis_tx/value	/jointset/ground_pelvis/pelvis_ty/value	/jointset/hip_l/hip_flexion_l/value	/jointset/hip_l/hip_adduction_l/value	/jointset/hip_l/hip_rotation_l/value	/jointset/back/lumbar_extension/value	/jointset/patellofemoral_l/patellar_flexion_l/value	/jointset/knee_l/knee_flexion_l/value	/jointset/knee_l/knee_adduction_l/value	/jointset/knee_l/knee_rotation_l/value	/jointset/ankle_l/ankle_angle_l/value	/jointset/subtalar_l/subtalar_angle_l/value	/jointset/ground_pelvis/pelvis_tilt/speed	/jointset/ground_pelvis/pelvis_tx/speed	/jointset/ground_pelvis/pelvis_ty/speed	/jointset/hip_l/hip_flexion_l/speed	/jointset/hip_l/hip_adduction_l/speed	/jointset/hip_l/hip_rotation_l/speed	/jointset/back/lumbar_extension/speed	/jointset/patellofemoral_l/patellar_flexion_l/speed	/jointset/knee_l/knee_flexion_l/speed	/jointset/knee_l/knee_adduction_l/speed	/jointset/knee_l/knee_rotation_l/speed	/jointset/ankle_l/ankle_angle_l/speed	/jointset/subtalar_l/subtalar_angle_l/speed	/forceset/tau_hip_flexion_l	/forceset/tau_hip_adduction_l	/forceset/tau_hip_rotation_l	/forceset/tau_knee_flexion_l	/forceset/tau_ankle_angle_l	/forceset/tau_subtalar_angle_l	/forceset/tau_lumbar_extension	lambda_cid13_p0	lambda_cid13_p1	lambda_cid13_p2	lambda_cid13_p3	lambda_cid13_p4	lambda_cid13_p5	lambda_cid14_p0	/jointset/ground_pelvis/pelvis_tilt/accel	/jointset/ground_pelvis/pelvis_tx/accel	/jointset/ground_pelvis/pelvis_ty/accel	/jointset/hip_l/hip_flexion_l/accel	/jointset/hip_l/hip_adduction_l/accel	/jointset/hip_l/hip_rotation_l/accel	/jointset/back/lumbar_extension/accel	/jointset/patellofemoral_l/patellar_flexion_l/accel	/jointset/knee_l/knee_flexion_l/accel	/jointset/knee_l/knee_adduction_l/accel	/jointset/knee_l/knee_rotation_l/accel	/jointset/ankle_l/ankle_angle_l/accel	/jointset/subtalar_l/subtalar_angle_l/accel	gamma_cid13_p0	gamma_cid13_p1	gamma_cid13_p2	gamma_cid13_p3	gamma_cid13_p4	gamma_cid13_p5	gamma_cid14_p0
0.5	-0.1719847935104066	0.04437923511790507	0.7926188547459884	0.877267861209866	-0.3609421125751218	-0.03295471271954916	-0.3949347662358458	0.8899585746008625	0.889958574600839	-0.0287905175979451	-0.1744948827968487	0.3087609655556511	0.1652455351232212	-0.653183543689727	-0.1387627605286918	-0.4432611095511163	2.092319046954575	-0.0002123087041968708	0.5175933158151407	-0.3185278579643598	1.824466415799728	1.824466415799671	0.2288829918460687	0.0007813125846912981	0.5306493902823637	0.2216507023316871	-0.08618214214133336	0.07535462942123994	-0.001996653800130953	-0.1974954645171726	0.01138093765897275	-0.01668318340508755	0.105678636877745	-23.74038438618634	15.53110867961664	-7.473213896338403	1.196206239513371	-442.6146309506914	-28.6984699354708	-7.314982345278023	0.1730455671197359	0.2902020716483427	-0.3952290373259286	-0.9544206468826925	0.1443098370303546	-0.5576569357198874	1.258599296949527	-1.395737754009684	-1.395737754009739	-0.2464759979726859	0.02097785043214756	-0.7311584478382384	0.1319495101311307	-3.592232755883024e-07	-1.244157180322286e-06	3.983084712621952e-06	4.397133515741734e-08	-8.00540071605466e-07	-1.715105468833588e-06	-5.819793129924579e-07
0.51	-0.1785062334324723	0.04300639500598297	0.7881675746674002	0.8981388888702067	-0.3609391194726986	-0.02780400428316033	-0.3980577012006543	0.9081301005480464	0.908130100547902	-0.02652034885286189	-0.1744869199650477	0.3140294531159303	0.1674650724489829	-0.6510154565823634	-0.135783897851467	-0.4468946266286242	2.081593320013237	0.0008096901949760514	0.5124923985887314	-0.3060244757746577	1.809577421385097	1.809577421385088	0.2251493045931387	0.0007978203974494504	0.5229782767971528	0.2222191763155555	-0.09031025582567646	0.07662204933310515	-0.002426159260487038	-0.1994261850102866	0.009716027544077101	-0.01597350406430998	0.1088742082210993	-24.41655264938671	15.51247187985049	-7.665777775956244	1.325151942239072	-445.3397173286617	-28.67696332238264	-6.609765576984002	0.2520010129104394	0.3049439690106558	-0.3325298903274069	-1.175674296300049	0.08042965235330918	-0.4952702321155588	1.251406563363482	-1.574566813681211	-1.574566813673996	-0.4371173917814562	-0.009315275712682364	-0.7956317279366408	0.01336590412774943	-3.552001753232554e-07	-1.065674668751817e-06	4.002837085916933e-06	6.767892854743077e-08	-7.791738602432938e-07	-1.538450334487131e-06	-5.749660539108174e-07
0.52	-0.1850033303373932	0.04166398664148322	0.7836829360485643	0.918893854145425	-0.3609260494340854	-0.02270609724223912	-0.4010545625668892	0.9261449192453836	0.926144919245125	-0.02428757744085396	-0.1744790525596066	0.3192191207555433	0.1696891084269058	-0.6483149402603611	-0.1326764110442244	-0.4499328176007046	2.069106569930272	0.001803078533851964	0.5070330367217526	-0.2933131382496316	1.793124965830811	1.79312496583085	0.2214035252270768	0.0007622273137923568	0.5148854061489777	0.2225504327639456	-0.09443836951001403	0.07788946924496112	-0.002855664720739097	-0.2013569055034019	0.00805111742917785	-0.01526382472354767	0.1120697795644612	-25.08870694473861	15.48401388539312	-7.84635868661717	1.421260966473255	-448.0084200429002	-28.74510100579463	-5.945853582675109	0.2795314100475282	0.315926897651912	-0.2761638162404536	-1.306625275207979	0.1385877249709462	-0.6293458638338023	1.300190364014336	-1.708429981940599	-1.70842998194059	-0.2488944205990392	0.01055767114903269	-0.8155098804310912	0.08450600303546103	-3.473648738199513e-07	-8.572038496852235e-07	3.985667442542498e-06	9.326914784250424e-08	-7.494407967016047e-07	-1.329850410216213e-06	-5.616713573259628e-07
0.53	-0.1914707960825972	0.04035325084287043	0.7791709039545268	0.9395153937951388	-0.3609031029782409	-0.01766416134045641	-0.4039232066078931	0.9439877211010451	0.9439877211007625	-0.0220924023788842	-0.1744716047821711	0.3243259216062154	0.1719153774422172	-0.6450832104133181	-0.1294533093381051	-0.4523709076114357	2.054912254105893	0.002782437747577496	0.5012921035575119	-0.2803842027328007	1.775194374613277	1.7751943746133	0.2176368195416647	0.0007054349698151398	0.5064159867192708	0.2226640418116699	-0.09868696222838784	0.07903631830486814	-0.003215377856685902	-0.2032364833263151	0.006152272507311471	-0.0146742071195107	0.1153269959456772	-25.85738159128802	15.52267208307926	-8.035440929837556	1.629296989570189	-450.8049086148024	-28.71760327922605	-5.323423241408707	0.3592095117187639	0.3281390502331434	-0.2123743188747085	-1.51924833827202	0.07648849463767812	-0.5563017364199622	1.293965228254705	-1.871417357222438	-1.871417357224823	-0.4398060225284573	-0.01636058463348888	-0.8715259406677726	-0.03146587226180119	-3.358324644792609e-07	-5.844297376357347e-07	3.935415856297272e-06	1.254644614062972e-07	-7.132764290461189e-07	-1.07623828788614e-06	-5.392776206150758e-07
